<svg width="774.105" height="86.168" viewBox="0 0 204.815 22.799" xmlns="http://www.w3.org/2000/svg"><path d="M18.008 22.79q-1.116 0-1.116-.01L1.116 6.307v16.482H0V0h1.116l15.776 16.473V0h1.116zm21.441 0h-4.726l-1.841-4.438H21.896l-1.841 4.437h-1.21L26.78 3.683 25.254.02h4.726zm-7.032-5.554L27.384 5.144l-5.023 12.092Zm15.896 5.554q-2.279 0-4.353-.856-2.065-.856-3.693-2.484-2.558-2.586-3.172-6.111-.167-.95-.167-1.935 0-.986.167-1.944.614-3.516 3.172-6.111Q41.895 1.73 43.96.874 46.034.01 48.313.01q2.289 0 4.354.865 2.074.856 3.702 2.475.055.046.102.102l-2.837 1.2q-.977-1.637-2.363-2.577-1.376-.948-2.986-.948h-.065q-1.953.065-3.525 1.441-1.572 1.377-2.512 3.702-.939 2.317-.939 5.135 0 .558.037 1.107.056.763.186 1.488.177 1.014.68 2.298.502 1.283 1.497 2.446 1.004 1.163 2.65 1.814 1.21.474 2.847.474.605 0 1.275-.065 1.748-.288 3.06-1.023v-6.316h-3.619v-1.116h7.981v5.144q-.632.958-1.47 1.795-1.302 1.302-2.892 2.111-2.428 1.228-5.163 1.228zm29.412 0H73l-1.842-4.438H60.173l-1.842 4.437h-1.209l7.934-19.106L63.531.02h4.725zm-7.032-5.554L65.661 5.144l-5.023 12.092ZM96.57 22.79q-1.115 0-1.115-.01L79.679 6.307v16.482h-1.116V0h1.116l15.776 16.473V0h1.116zm12.233.009q-2.289 0-4.363-.856-2.065-.856-3.693-2.484-2.558-2.586-3.172-6.111-.167-.949-.167-1.935 0-.986.167-1.944.614-3.516 3.172-6.111 1.628-1.619 3.693-2.474 2.074-.865 4.363-.865 2.279 0 4.344.865 2.074.855 3.702 2.483 1.627 1.619 2.483 3.693.856 2.065.856 4.353 0 2.28-.856 4.353-.856 2.065-2.483 3.693-1.628 1.628-3.702 2.484-2.065.856-4.344.856zm0-1.117q1.972-.037 3.562-1.404 1.59-1.368 2.54-3.702.958-2.335.958-5.163 0-2.837-.958-5.162-.95-2.335-2.54-3.702-1.59-1.377-3.572-1.414h-.093q-1.953.074-3.525 1.45-1.572 1.378-2.511 3.694-.94 2.316-.94 5.134 0 2.81.94 5.135.939 2.316 2.511 3.693 1.572 1.376 3.525 1.441zm0-8.753-1.526-1.516 1.526-1.525 1.516 1.525zm28.258 9.861q-2.279 0-4.353-.856-2.065-.856-3.693-2.484-2.558-2.586-3.172-6.111-.167-.95-.167-1.935 0-.986.167-1.944.614-3.516 3.172-6.111 1.628-1.619 3.693-2.475 2.074-.865 4.353-.865 2.289 0 4.354.865 2.074.856 3.702 2.475.056.046.102.102l-2.837 1.2q-.977-1.637-2.363-2.577-1.376-.948-2.986-.948h-.065q-1.953.065-3.525 1.441-1.572 1.377-2.511 3.702-.94 2.317-.94 5.135 0 1.358.233 2.632.176 1.014.679 2.298.511 1.274 1.507 2.428 1.004 1.153 2.65 1.804 1.2.465 2.819.465.614 0 1.284-.065 2.567-.41 4.604-2.028.819-.65 1.256-1.134l.428-.475 1.33.01q-.698 1.144-1.665 2.111-1.628 1.628-3.702 2.484-2.065.855-4.354.855zm29.608 0h-4.725l-1.842-4.438h-10.986l-1.841 4.437h-1.21L154 3.683 152.474.02h4.726zm-7.032-5.554-5.032-12.092-5.023 12.092zm12.232 5.554h-4.363V.018h4.363v9.99L182.007 0h1.591l-6.874 6.781 9.962 15.999h-5.134l-8.01-12.855-1.673 1.646zm15.654 0V.018l17.292-.01v1.117l-12.929.009v8.623l9.813-.01v1.116l-9.813.01v10.79l12.93-.01v1.117z" fill="#1c1917" aria-label="NAGANO CAKE"/></svg>